<?xml version="1.0" encoding="UTF-8"?>
<svg xmlns="http://www.w3.org/2000/svg" width="96" height="48" viewBox="0 0 96 48" fill="none">
  <path d="M57.3966 6.55019V0.0732346H63.8828V6.55019H57.3966Z" fill="#005E2C"></path>
  <path d="M54.8926 34.1393H48.4169V0.0995941H54.8926V34.1393Z" fill="#005E2C"></path>
  <path d="M57.3966 34.1025V10.1616H63.8828V34.1025H57.3966Z" fill="#005E2C"></path>
  <path d="M95.9913 16.1422V10.0618H90.2727V3.89147H84.3426C84.3426 4.90135 84.3426 5.86364 84.3426 6.82064C84.3103 8.96725 82.7535 9.99303 80.6044 10.0618C80.3921 10.0618 80.1859 10.0618 79.9737 10.0618H78.6659H76.453V8.59718C76.453 7.06386 77.1099 6.29191 78.4282 6.29191H81.457V9.05263e-06H78.3644C77.2884 -0.00136457 76.2183 0.153592 75.1872 0.460007C74.1621 0.765037 73.224 1.30866 72.45 2.0462C71.5956 2.82168 70.9214 3.77455 70.475 4.8379C69.9576 6.1461 69.7107 7.54539 69.7496 8.95143V10.1147H65.1642V16.2109H69.7337V34.1296H76.342V17.2684H74.3773L79.958 12.7847L85.5446 17.2684H83.6489V26.3573C83.6542 27.2722 83.7974 28.1811 84.0726 29.0538C84.3441 29.9686 84.7977 30.8192 85.4067 31.5547C86.0726 32.337 86.9072 32.9588 87.8475 33.3735C89.0474 33.8853 90.3454 34.1288 91.6495 34.0873H95.2602V27.8694C94.5246 27.8694 93.0263 27.8694 92.5284 27.806C92.0814 27.7765 91.648 27.6424 91.2625 27.4147C90.9056 27.186 90.6394 26.8401 90.5112 26.4365C90.3987 26.0782 90.3327 25.7067 90.3147 25.3315C90.3147 22.5398 90.3147 20.5042 90.3147 17.6596V16.1422H95.9913Z" fill="#005E2C"></path>
  <path fill-rule="evenodd" clip-rule="evenodd" d="M37.3189 34.5256C42.2273 34.5256 46.3679 30.5812 46.3679 22.0264C46.3679 13.8416 42.7092 9.5113 37.3189 9.5113C34.3855 9.5113 31.8282 12.303 31.8282 12.303V9.99243H25.3842V47.8602H31.9764V32.2626C33.0354 33.5633 34.8674 34.5256 37.3189 34.5256ZM35.8787 15.1529C38.1873 15.1529 39.7758 17.2678 39.7758 22.0264C39.7758 26.8167 38.1926 28.8998 35.8787 28.8998C33.5649 28.8998 31.9764 26.7849 31.9764 22.0264C31.9764 17.2678 33.5702 15.1529 35.8787 15.1529Z" fill="#005E2C"></path>
  <path d="M23.4193 22.8892C23.4193 31.0423 18.278 34.5213 11.7705 34.5213C5.26311 34.5213 0 31.0634 0 22.8892L0.0265011 0.0585861H6.79866V22.9368C6.79866 26.437 9.10195 28.2611 11.7917 28.2611C14.4816 28.2611 16.6418 26.437 16.6418 22.9368L16.6683 0.0585861H23.4511L23.4193 22.8892Z" fill="#005E2C"></path>
  <path d="M43.3916 38.1008V47.8506H41.3797L38.7322 42.0346H38.6052V47.8506H36.7519V38.1008H38.7479L41.3954 43.9644H41.5173V38.1008H43.3916Z" fill="#22AE49"></path>
  <path fill-rule="evenodd" clip-rule="evenodd" d="M47.5962 40.743C45.8383 40.743 44.4668 42.0807 44.4668 44.3648C44.4668 46.76 45.8436 47.9866 47.5962 47.9866C49.3488 47.9866 50.7201 46.7759 50.7201 44.3648C50.7201 42.0807 49.3541 40.743 47.5962 40.743ZM47.5962 42.3715C48.3322 42.3715 48.8086 43.0958 48.8086 44.3648C48.8086 45.6338 48.3375 46.3582 47.5962 46.3582C46.8549 46.3582 46.3678 45.6338 46.3678 44.3648C46.3678 43.0958 46.8602 42.3715 47.5962 42.3715Z" fill="#22AE49"></path>
  <path d="M51.6677 40.8861H53.5527V41.7532C53.7374 41.4166 54.0169 41.1415 54.3567 40.962C54.6964 40.7824 55.0815 40.7064 55.4641 40.7433H55.8559V42.6467C55.6527 42.6136 55.4475 42.5942 55.2418 42.5886C53.971 42.5886 53.5791 43.6461 53.5791 44.7035V47.8759H51.6677V40.8861Z" fill="#22AE49"></path>
  <path d="M67.8277 43.1759V47.8552H65.9162V43.5618C65.9162 42.7687 65.482 42.3775 64.9525 42.3775C64.423 42.3775 63.8935 42.7582 63.8935 43.6358V47.8657H61.9875V37.9573H63.8935V41.6214H64.0207C64.1968 41.3402 64.4443 41.1107 64.7383 40.9566C65.0323 40.8023 65.3621 40.7289 65.6939 40.7437C67.0176 40.7437 67.8277 41.6478 67.8277 43.1759Z" fill="#22AE49"></path>
  <path d="M68.4574 40.8865H70.2101L71.0361 45.4812H71.1473L72.0527 41.0241H74.0065L74.9015 45.4812H75.0229L75.8171 40.8865H77.5756L76.0983 47.8499H74.033L73.0746 43.784H72.9581L71.9838 47.8499H69.9188L68.4574 40.8865Z" fill="#22AE49"></path>
  <path fill-rule="evenodd" clip-rule="evenodd" d="M81.0011 47.9872C82.5526 47.9872 83.6804 47.1941 83.8604 45.6079L82.0494 45.6132C82.0412 45.7434 82.0074 45.8707 81.9497 45.9877C81.8919 46.1047 81.8117 46.209 81.7127 46.2946C81.6145 46.3803 81.4997 46.4455 81.376 46.4864C81.2515 46.5273 81.121 46.5432 80.9906 46.5332C80.2647 46.5332 79.8575 45.9463 79.82 44.8888H83.8071C83.8289 44.6993 83.8379 44.5086 83.8341 44.3178C83.8499 41.6689 82.4416 40.7488 80.9643 40.7488C79.3018 40.7488 77.9513 41.9438 77.9513 44.45C77.9513 46.7764 79.1481 47.9872 81.0011 47.9872ZM82.0074 43.5881H79.8312C79.8995 42.721 80.3607 42.2082 80.9478 42.2082C81.5357 42.2082 82.0074 42.6523 82.0074 43.5881Z" fill="#22AE49"></path>
  <path d="M84.6335 45.6602H86.4603C86.4543 45.7856 86.4745 45.911 86.5202 46.0281C86.5652 46.1451 86.6357 46.2512 86.725 46.3395C86.8142 46.4278 86.9214 46.4963 87.0392 46.5405C87.1569 46.5847 87.2829 46.6037 87.4081 46.5961C87.8423 46.5961 88.149 46.4005 88.149 46.0092C88.149 45.5333 87.7576 45.3271 87.1329 45.0733L86.6035 44.883C85.7509 44.5605 84.803 44.1269 84.803 42.8315C84.803 41.5362 85.9308 40.743 87.2866 40.743C88.9274 40.743 89.7695 41.6471 89.849 42.9055H88.0485C88.0523 42.8029 88.035 42.7007 87.9968 42.6052C87.9593 42.5098 87.9015 42.4233 87.8288 42.3511C87.7553 42.2791 87.6676 42.223 87.5716 42.1864C87.4756 42.1499 87.3729 42.1337 87.2701 42.1388C87.1854 42.1287 87.0992 42.1373 87.0174 42.1639C86.9364 42.1906 86.8614 42.2346 86.7992 42.293C86.737 42.3514 86.6875 42.4228 86.656 42.5022C86.6237 42.5814 86.6095 42.6668 86.614 42.7522C86.614 43.1699 87.0054 43.3338 87.5618 43.5559L88.0913 43.7515C88.9596 44.0582 89.96 44.6028 89.96 45.9669C89.96 47.331 88.7902 47.9866 87.3976 47.9866C85.6129 47.9866 84.6755 47.0984 84.6335 45.6602Z" fill="#22AE49"></path>
  <path d="M93.8144 46.0104C93.7087 45.943 93.6292 45.8398 93.5925 45.7196C93.54 45.5485 93.5167 45.3697 93.5235 45.1909V43.2187V42.4944H95.2235V40.9769H93.5077V39.1422H91.7552C91.7552 39.4436 91.7552 39.7291 91.7552 40.0146C91.7725 40.1447 91.759 40.2771 91.717 40.4015C91.675 40.526 91.6052 40.6391 91.513 40.7325C91.4208 40.8259 91.3075 40.8969 91.1838 40.9401C91.0593 40.9834 90.9273 40.9978 90.7969 40.9821H90.2674V42.4944H91.612V45.7143C91.6142 45.987 91.657 46.2578 91.7395 46.518C91.8077 46.7876 91.9322 47.0398 92.1047 47.2582C92.2929 47.4863 92.5329 47.6673 92.8036 47.7869C93.1613 47.9397 93.5482 48.0119 93.9367 47.9984H94.9955V46.1479C94.7788 46.1479 94.3341 46.1479 94.1856 46.1479C94.0529 46.131 93.9262 46.0839 93.8144 46.0104Z" fill="#22AE49"></path>
  <path d="M59.9485 45.9475C59.8455 45.8764 59.7677 45.7745 59.7262 45.6567C59.6764 45.4849 59.6531 45.3066 59.6573 45.1279V43.1557C59.6573 42.9284 59.6573 42.6851 59.6573 42.4261H61.357C61.357 41.8974 61.357 41.4373 61.357 40.9087H59.6468V39.0792H57.8783C57.8783 39.3806 57.8783 39.6661 57.8783 39.9516C57.8943 40.0816 57.8805 40.2135 57.8382 40.3374C57.7959 40.4613 57.7261 40.5741 57.6338 40.6672C57.5416 40.7603 57.4294 40.8313 57.3057 40.875C57.1821 40.9186 57.0502 40.9338 56.9199 40.9192C56.7292 40.9192 56.5863 40.9192 56.3904 40.9192C56.3904 41.4479 56.3904 41.9238 56.3904 42.4366H57.7353V45.6567C57.7373 45.9276 57.7801 46.1967 57.8624 46.455C57.9353 46.7255 58.0612 46.979 58.233 47.2005C58.4231 47.4271 58.6621 47.6079 58.932 47.7293C59.2879 47.8812 59.6728 47.9534 60.0597 47.9407H61.1187V46.0902C60.9016 46.0902 60.4569 46.0902 60.3087 46.0902C60.179 46.0718 60.0555 46.0228 59.9485 45.9475Z" fill="#22AE49"></path>
</svg>
